<?xml version="1.0" standalone="no"?><!DOCTYPE svg PUBLIC "-//W3C//DTD SVG 1.1//EN" "http://www.w3.org/Graphics/SVG/1.1/DTD/svg11.dtd"><svg t="1762130414809" class="icon" viewBox="0 0 1024 1024" version="1.1" xmlns="http://www.w3.org/2000/svg" p-id="20875" xmlns:xlink="http://www.w3.org/1999/xlink" width="200" height="200"><path d="M900.096 950.052571c-13.202286 0-25.929143-5.229714-35.254857-14.628571l-70.473143-70.509714a49.846857 49.846857 0 1 1 70.473143-70.473143l70.509714 70.473143a49.554286 49.554286 0 0 1 0 70.509714c-9.325714 9.398857-22.016 14.628571-35.254857 14.628571z m-709.12-189.988571A401.042286 401.042286 0 0 1 73.142857 475.538286c0-222.171429 180.114286-402.285714 402.285714-402.285715s402.285714 180.114286 402.285715 402.285715c0 111.104-45.056 211.712-117.869715 284.525714A401.042286 401.042286 0 0 1 475.428571 877.824c-111.067429 0-211.638857-44.982857-284.416-117.76zM255.634286 255.634286a310.784 310.784 0 0 0 0 439.588571A309.796571 309.796571 0 0 0 475.428571 786.285714a309.796571 309.796571 0 0 0 219.794286-91.062857A309.76 309.76 0 0 0 786.285714 475.428571a309.833143 309.833143 0 0 0-91.062857-219.794285 310.784 310.784 0 0 0-439.588571 0z" fill="#6C7880" p-id="20876"></path></svg>