<?xml version="1.0" standalone="no"?><!DOCTYPE svg PUBLIC "-//W3C//DTD SVG 1.1//EN" "http://www.w3.org/Graphics/SVG/1.1/DTD/svg11.dtd"><svg t="1762133356849" class="icon" viewBox="0 0 1024 1024" version="1.1" xmlns="http://www.w3.org/2000/svg" p-id="11889" xmlns:xlink="http://www.w3.org/1999/xlink" width="200" height="200"><path d="M512 477.696m-367.36 0a367.36 367.36 0 1 0 734.72 0 367.36 367.36 0 1 0-734.72 0Z" fill="#F63324" p-id="11890"></path><path d="M506.752 457.344l-80.64 86.4c-1.92 2.176-2.432 5.248-1.28 7.808 1.152 2.688 3.712 4.352 6.656 4.352h161.408c2.816 0 5.504-1.792 6.656-4.352 1.152-2.688 0.64-5.76-1.28-7.808l-80.64-86.4c-1.408-1.536-3.328-2.304-5.376-2.304-2.176 0-4.096 0.768-5.504 2.304z m29.696 202.752v-104.064h-48.64v104.064h-97.152c-67.072 0-121.6-58.368-121.6-130.176 0-59.264 36.608-108.928 87.04-125.056 26.24-64.384 86.4-109.44 156.16-109.44 69.632 0 129.792 45.056 156.16 109.44 50.304 15.872 87.04 65.792 87.04 125.056 0 71.808-54.528 130.176-121.6 130.176h-97.408z m0 0" fill="#FFFFFF" p-id="11891"></path></svg>