<?xml version="1.0" standalone="no"?><!DOCTYPE svg PUBLIC "-//W3C//DTD SVG 1.1//EN" "http://www.w3.org/Graphics/SVG/1.1/DTD/svg11.dtd"><svg t="1762087497340" class="icon" viewBox="0 0 1024 1024" version="1.1" xmlns="http://www.w3.org/2000/svg" p-id="1088" xmlns:xlink="http://www.w3.org/1999/xlink" width="200" height="200"><path d="M512 601.728a227.285333 227.285333 0 1 0 0-454.570667 227.285333 227.285333 0 0 0 0 454.570667z m0-382.037333a154.752 154.752 0 1 1 0 309.504 154.752 154.752 0 0 1 0-309.504z" fill="#999999" p-id="1089"></path><path d="M216.917333 834.176V369.237333a42.666667 42.666667 0 0 1 42.666667-42.666666h504.832a42.666667 42.666667 0 0 1 42.666667 42.666666V834.133333a42.666667 42.666667 0 0 1-42.666667 42.666667H259.584a42.666667 42.666667 0 0 1-42.666667-42.666667z" fill="#4D4D4D" p-id="1090"></path><path d="M329.386667 445.354667a36.266667 36.266667 0 0 0-36.266667 36.266666q0 90.666667 64.128 154.752Q421.333333 700.501333 512 700.501333t154.752-64.128q64.085333-64.085333 64.085333-154.752a36.266667 36.266667 0 0 0-72.533333 0q0 60.586667-42.837333 103.466667T512 627.968q-60.586667 0-103.466667-42.88-42.837333-42.837333-42.837333-103.466667a36.266667 36.266667 0 0 0-36.266667-36.266666z" fill="#D8D8D8" p-id="1091"></path></svg>